<svg xmlns="http://www.w3.org/2000/svg" viewBox="18.10 380.95 566.32 340.60" preserveAspectRatio="xMidYMid meet" style="width:100%;height:auto;background:#f8f6ec;border:1px solid #ccc;"><style>.hover-room{transition:fill-opacity 0.15s,stroke-width 0.15s;}.hover-room:hover{fill-opacity:0.85;stroke-width:2.5;cursor:pointer;}.hover-opening{transition:stroke-width 0.15s;}.hover-opening:hover{stroke-width:1.5;cursor:pointer;}</style><g transform="translate(0 1102.4951811523438) scale(1 -1)"><polygon class="hover-room" points="39.08,700.51 39.08,401.92 402.08,401.92 402.08,454.36 383.13,481.54 366.45,481.54 366.08,481.54 336.10,481.54 336.10,454.36 330.70,454.36 330.70,459.76 330.70,533.31 308.58,555.19 308.58,584.42 237.10,584.42 237.10,459.76 246.95,459.76 254.98,459.76 269.70,459.76 269.70,454.36 260.38,454.36 260.38,401.92 49.20,401.92 49.20,700.51 130.31,700.51 130.31,683.05 150.20,683.05 167.45,700.51" fill="#f4e7d2" fill-opacity="0.55" stroke="#7a7a7a" stroke-width="0.4"><title>SUITE 02 · 32.0 m² · id=r000</title></polygon><polygon class="hover-room" points="308.83,584.42 308.83,555.19 330.70,533.56 330.70,554.94 336.10,554.94 336.10,486.94 366.08,486.94 366.45,486.94 370.08,486.94 370.08,521.91 383.13,521.91 383.13,584.42 336.10,584.42 330.70,584.42" fill="#d2f4e7" fill-opacity="0.55" stroke="#7a7a7a" stroke-width="0.4"><title>BANHO 02 · 6.2 m² · id=r001</title></polygon><polygon class="hover-room" points="54.60,584.42 85.20,584.42 84.83,584.42 67.83,584.42 67.83,542.44 54.60,542.06 54.60,486.94 65.95,486.94 65.95,459.76 54.60,459.76 54.60,435.69 82.58,435.69 82.95,407.32 92.58,407.32 92.58,459.76 130.31,508.71 130.31,521.91 130.31,532.81 130.31,514.11 130.31,508.71 124.92,508.71 124.92,584.42 96.45,584.42 91.20,584.42" fill="#e7f4d2" fill-opacity="0.55" stroke="#7a7a7a" stroke-width="0.4"><title>A.S. · 10.4 m² · id=r002</title></polygon><polygon class="hover-room" points="138.33,521.91 138.33,508.71 92.83,459.76 92.83,407.32 103.95,407.32 104.33,401.92 49.20,401.92 185.83,401.92 185.83,432.81 215.95,459.76 215.95,498.94 182.58,498.94 154.45,521.91" fill="#dfe7c8" fill-opacity="0.55" stroke="#7a7a7a" stroke-width="0.4"><title>TERRACO SOCIAL · 13.6 m² · id=r003</title></polygon><polygon class="hover-room" points="167.70,700.51 150.45,683.05 553.51,683.05 553.51,516.51 525.58,516.51 525.20,516.51 466.33,516.51 466.58,521.91 489.92,521.91 489.92,622.82 548.12,622.82 548.12,677.66 336.10,677.66 336.10,622.82 330.70,622.82 330.70,625.22 316.45,625.22 301.83,617.42 301.70,589.82 304.70,589.82 330.70,589.82 336.10,589.82 388.53,589.82 388.53,521.91 405.20,521.91 405.58,516.51 388.53,516.51 388.53,481.54 383.13,481.54 402.33,454.36 402.33,401.92 563.45,401.92 563.45,700.51" fill="#d2f4e7" fill-opacity="0.55" stroke="#7a7a7a" stroke-width="0.4"><title>SUITE 01 · 69.9 m² · id=r004</title></polygon><polygon class="hover-room" points="495.32,617.42 495.32,521.91 525.20,521.91 525.58,521.91 533.20,521.91 533.20,557.06 548.12,557.44 548.12,617.42" fill="#f4d2e7" fill-opacity="0.55" stroke="#7a7a7a" stroke-width="0.4"><title>BANHO 01 · 5.5 m² · id=r005</title></polygon><polygon class="hover-room" points="54.60,695.11 54.60,584.42 91.20,584.42 96.45,584.42 124.92,584.42 124.92,617.42 130.31,617.42 130.31,589.82 130.31,600.56 130.31,630.62 148.20,640.94 148.20,677.66 124.92,677.66 124.92,695.11" fill="#f4e7d2" fill-opacity="0.55" stroke="#7a7a7a" stroke-width="0.4"><title>COZINHA · 11.3 m² · id=r006</title></polygon><polygon class="hover-room" points="260.38,677.66 260.38,630.62 320.33,630.62 320.33,677.66" fill="#d2e7f4" fill-opacity="0.55" stroke="#7a7a7a" stroke-width="0.4"><title>LAVABO · 3.4 m² · id=r007</title></polygon><polygon class="hover-room" points="148.45,677.66 148.45,640.94 130.31,630.62 130.31,600.69 182.58,600.69 189.70,589.82 301.58,589.82 301.58,617.42 316.20,625.22 254.98,625.22 254.98,677.66" fill="#c8e6f5" fill-opacity="0.55" stroke="#7a7a7a" stroke-width="0.4"><title>SALA DE JANTAR · 13.1 m² · id=r008</title></polygon><polygon class="hover-room" points="130.31,600.44 130.31,589.82 130.31,533.06 130.31,521.91 154.45,521.91 182.58,499.19 216.08,499.19 220.45,508.71 212.95,508.71 212.58,514.11 231.71,514.11 231.71,589.82 304.45,589.82 301.58,589.82 189.70,589.82 182.58,600.44" fill="#e7d2f4" fill-opacity="0.55" stroke="#7a7a7a" stroke-width="0.4"><title>SALA DE ESTAR · 10.8 m² · id=r009</title></polygon><polygon class="hover-room" points="220.45,508.71 216.20,499.06 216.20,459.76 186.08,432.81 186.08,401.92 260.38,401.92 260.38,454.36 231.71,454.36 231.71,499.81 220.83,499.81" fill="#cce0a3" fill-opacity="0.55" stroke="#7a7a7a" stroke-width="0.4"><title>TERRACO TECNICO · 5.8 m² · id=r010</title></polygon><polygon points="49.20,695.05 130.32,695.05 130.32,700.57 49.20,700.57" fill="#3b3326" fill-opacity="1.0" stroke="none" stroke-width="0" /><polygon points="124.92,683.06 130.32,683.06 130.32,695.05 124.92,695.05" fill="#3b3326" fill-opacity="1.0" stroke="none" stroke-width="0" /><polygon points="167.63,677.66 553.52,677.66 553.52,683.06 167.63,683.06" fill="#3b3326" fill-opacity="1.0" stroke="none" stroke-width="0" /><polygon points="124.92,677.66 132.24,677.66 132.24,683.06 124.92,683.06" fill="#3b3326" fill-opacity="1.0" stroke="none" stroke-width="0" /><polygon points="330.70,630.62 336.10,630.62 336.10,677.66 330.70,677.66" fill="#3b3326" fill-opacity="1.0" stroke="none" stroke-width="0" /><polygon points="254.98,630.62 260.38,630.62 260.38,677.66 254.98,677.66" fill="#3b3326" fill-opacity="1.0" stroke="none" stroke-width="0" /><polygon points="289.90,625.22 336.10,625.22 336.10,630.62 289.90,630.62" fill="#3b3326" fill-opacity="1.0" stroke="none" stroke-width="0" /><polygon points="254.98,625.22 262.30,625.22 262.30,630.62 254.98,630.62" fill="#3b3326" fill-opacity="1.0" stroke="none" stroke-width="0" /><polygon points="548.12,622.82 553.52,622.82 553.52,677.66 548.12,677.66" fill="#3b3326" fill-opacity="1.0" stroke="none" stroke-width="0" /><polygon points="524.84,617.42 553.52,617.42 553.52,622.82 524.84,622.82" fill="#3b3326" fill-opacity="1.0" stroke="none" stroke-width="0" /><polygon points="489.92,617.42 497.24,617.42 497.24,622.82 489.92,622.82" fill="#3b3326" fill-opacity="1.0" stroke="none" stroke-width="0" /><polygon points="328.78,584.42 388.53,584.42 388.53,589.82 328.78,589.82" fill="#3b3326" fill-opacity="1.0" stroke="none" stroke-width="0" /><polygon points="231.71,584.42 297.22,584.42 297.22,589.82 231.71,589.82" fill="#3b3326" fill-opacity="1.0" stroke="none" stroke-width="0" /><polygon points="548.12,521.91 553.52,521.91 553.52,617.42 548.12,617.42" fill="#3b3326" fill-opacity="1.0" stroke="none" stroke-width="0" /><polygon points="489.92,521.91 495.32,521.91 495.32,617.42 489.92,617.42" fill="#3b3326" fill-opacity="1.0" stroke="none" stroke-width="0" /><polygon points="383.13,521.91 388.53,521.91 388.53,584.42 383.13,584.42" fill="#3b3326" fill-opacity="1.0" stroke="none" stroke-width="0" /><polygon points="526.76,516.51 553.52,516.51 553.52,521.91 526.76,521.91" fill="#3b3326" fill-opacity="1.0" stroke="none" stroke-width="0" /><polygon points="466.52,516.51 503.12,516.51 503.12,521.91 466.52,521.91" fill="#3b3326" fill-opacity="1.0" stroke="none" stroke-width="0" /><polygon points="383.13,516.51 404.01,516.51 404.01,521.91 383.13,521.91" fill="#3b3326" fill-opacity="1.0" stroke="none" stroke-width="0" /><polygon points="231.71,514.11 237.11,514.11 237.11,584.42 231.71,584.42" fill="#3b3326" fill-opacity="1.0" stroke="none" stroke-width="0" /><polygon points="124.92,514.11 130.32,514.11 130.32,613.22 124.92,613.22" fill="#3b3326" fill-opacity="1.0" stroke="none" stroke-width="0" /><polygon points="214.19,508.71 237.11,508.71 237.11,514.11 214.19,514.11" fill="#3b3326" fill-opacity="1.0" stroke="none" stroke-width="0" /><polygon points="124.92,508.71 132.24,508.71 132.24,514.11 124.92,514.11" fill="#3b3326" fill-opacity="1.0" stroke="none" stroke-width="0" /><polygon points="383.13,486.99 388.53,486.99 388.53,516.51 383.13,516.51" fill="#3b3326" fill-opacity="1.0" stroke="none" stroke-width="0" /><polygon points="330.70,486.99 336.10,486.99 336.10,554.91 330.70,554.91" fill="#3b3326" fill-opacity="1.0" stroke="none" stroke-width="0" /><polygon points="367.53,481.47 388.53,481.47 388.53,486.99 367.53,486.99" fill="#3b3326" fill-opacity="1.0" stroke="none" stroke-width="0" /><polygon points="330.70,481.47 343.90,481.47 343.90,486.99 330.70,486.99" fill="#3b3326" fill-opacity="1.0" stroke="none" stroke-width="0" /><polygon points="330.70,459.76 336.10,459.76 336.10,481.47 330.70,481.47" fill="#3b3326" fill-opacity="1.0" stroke="none" stroke-width="0" /><polygon points="231.71,459.76 237.11,459.76 237.11,508.71 231.71,508.71" fill="#3b3326" fill-opacity="1.0" stroke="none" stroke-width="0" /><polygon points="322.90,454.36 336.10,454.36 336.10,459.76 322.90,459.76" fill="#3b3326" fill-opacity="1.0" stroke="none" stroke-width="0" /><polygon points="231.71,454.36 268.18,454.36 268.18,459.76 231.71,459.76" fill="#3b3326" fill-opacity="1.0" stroke="none" stroke-width="0" /><polygon points="49.20,407.32 54.60,407.32 54.60,695.05 49.20,695.05" fill="#3b3326" fill-opacity="1.0" stroke="none" stroke-width="0" /><polygon points="49.20,401.92 103.08,401.92 103.08,407.32 49.20,407.32" fill="#3b3326" fill-opacity="1.0" stroke="none" stroke-width="0" /><g transform="translate(249.73 518.93) scale(1 -1)"><text x="0.00" y="-2.00" font-family="sans-serif" font-size="8.0" fill="#111" text-anchor="middle" dominant-baseline="middle">SUITE 02</text><text x="0.00" y="8.00" font-family="sans-serif" font-size="6.0" fill="#444" text-anchor="middle" dominant-baseline="middle">32.0 m²</text></g><g transform="translate(346.93 537.71) scale(1 -1)"><text x="0.00" y="-2.00" font-family="sans-serif" font-size="8.0" fill="#111" text-anchor="middle" dominant-baseline="middle">BANHO 02</text><text x="0.00" y="8.00" font-family="sans-serif" font-size="6.0" fill="#444" text-anchor="middle" dominant-baseline="middle">6.2 m²</text></g><g transform="translate(89.60 512.90) scale(1 -1)"><text x="0.00" y="-2.00" font-family="sans-serif" font-size="8.0" fill="#111" text-anchor="middle" dominant-baseline="middle">A.S.</text><text x="0.00" y="8.00" font-family="sans-serif" font-size="6.0" fill="#444" text-anchor="middle" dominant-baseline="middle">10.4 m²</text></g><g transform="translate(143.11 455.63) scale(1 -1)"><text x="0.00" y="-2.00" font-family="sans-serif" font-size="8.0" fill="#111" text-anchor="middle" dominant-baseline="middle">TERRACO SOCIAL</text><text x="0.00" y="8.00" font-family="sans-serif" font-size="6.0" fill="#444" text-anchor="middle" dominant-baseline="middle">13.6 m²</text></g><g transform="translate(405.75 570.87) scale(1 -1)"><text x="0.00" y="-2.00" font-family="sans-serif" font-size="8.0" fill="#111" text-anchor="middle" dominant-baseline="middle">SUITE 01</text><text x="0.00" y="8.00" font-family="sans-serif" font-size="6.0" fill="#444" text-anchor="middle" dominant-baseline="middle">69.9 m²</text></g><g transform="translate(525.51 554.62) scale(1 -1)"><text x="0.00" y="-2.00" font-family="sans-serif" font-size="8.0" fill="#111" text-anchor="middle" dominant-baseline="middle">BANHO 01</text><text x="0.00" y="8.00" font-family="sans-serif" font-size="6.0" fill="#444" text-anchor="middle" dominant-baseline="middle">5.5 m²</text></g><g transform="translate(115.30 627.14) scale(1 -1)"><text x="0.00" y="-2.00" font-family="sans-serif" font-size="8.0" fill="#111" text-anchor="middle" dominant-baseline="middle">COZINHA</text><text x="0.00" y="8.00" font-family="sans-serif" font-size="6.0" fill="#444" text-anchor="middle" dominant-baseline="middle">11.3 m²</text></g><g transform="translate(290.36 654.14) scale(1 -1)"><text x="0.00" y="-2.00" font-family="sans-serif" font-size="8.0" fill="#111" text-anchor="middle" dominant-baseline="middle">LAVABO</text><text x="0.00" y="8.00" font-family="sans-serif" font-size="6.0" fill="#444" text-anchor="middle" dominant-baseline="middle">3.4 m²</text></g><g transform="translate(214.47 625.07) scale(1 -1)"><text x="0.00" y="-2.00" font-family="sans-serif" font-size="8.0" fill="#111" text-anchor="middle" dominant-baseline="middle">SALA DE JANTAR</text><text x="0.00" y="8.00" font-family="sans-serif" font-size="6.0" fill="#444" text-anchor="middle" dominant-baseline="middle">13.1 m²</text></g><g transform="translate(197.63 548.18) scale(1 -1)"><text x="0.00" y="-2.00" font-family="sans-serif" font-size="8.0" fill="#111" text-anchor="middle" dominant-baseline="middle">SALA DE ESTAR</text><text x="0.00" y="8.00" font-family="sans-serif" font-size="6.0" fill="#444" text-anchor="middle" dominant-baseline="middle">10.8 m²</text></g><g transform="translate(223.00 461.25) scale(1 -1)"><text x="0.00" y="-2.00" font-family="sans-serif" font-size="8.0" fill="#111" text-anchor="middle" dominant-baseline="middle">TERRACO TECNICO</text><text x="0.00" y="8.00" font-family="sans-serif" font-size="6.0" fill="#444" text-anchor="middle" dominant-baseline="middle">5.8 m²</text></g><circle class="hover-opening" cx="328.78" cy="587.12" r="4.00" fill="#60a5fa" stroke="#000" stroke-width="0.5"><title>window · decision=clean · BANHO 02 ↔ SUITE 01 · id=o010</title></circle><circle class="hover-opening" cx="335.90" cy="627.92" r="4.00" fill="#f59e0b" stroke="#000" stroke-width="0.5"><title>interior_door · decision=clean · LAVABO ↔ BANHO 02 · id=o009</title></circle><circle class="hover-opening" cx="51.90" cy="609.00" r="4.00" fill="#fbbf24" stroke="#000" stroke-width="0.5"><title>interior_passage · decision=clean · SUITE 02 ↔ COZINHA · id=o004</title></circle><circle class="hover-opening" cx="51.90" cy="434.78" r="4.00" fill="#f59e0b" stroke="#000" stroke-width="0.5"><title>interior_door · decision=clean · SUITE 02 ↔ A.S. · id=o008</title></circle><circle class="hover-opening" cx="370.91" cy="484.24" r="4.00" fill="#f59e0b" stroke="#888" stroke-width="0.5"><title>interior_door · decision=debug · SUITE 02 ↔ BANHO 02 · id=o005</title></circle><circle class="hover-opening" cx="127.61" cy="545.55" r="4.00" fill="#fbbf24" stroke="#888" stroke-width="0.5"><title>interior_passage · decision=debug · A.S. ↔ SALA DE ESTAR · id=o006</title></circle><circle class="hover-opening" cx="167.63" cy="680.36" r="4.00" fill="#f59e0b" stroke="#000" stroke-width="0.5"><title>interior_door · decision=clean · SALA DE JANTAR ↔ SUITE 01 · id=o007</title></circle><circle class="hover-opening" cx="54.10" cy="404.62" r="4.00" fill="#60a5fa" stroke="#000" stroke-width="0.5"><title>window · decision=clean · TERRACO SOCIAL ↔ A.S. · id=o012</title></circle><circle class="hover-opening" cx="173.21" cy="511.41" r="4.00" fill="#34d399" stroke="#888" stroke-width="0.5"><title>glazed_balcony · decision=debug · TERRACO SOCIAL ↔ SALA DE ESTAR · id=g001</title></circle><circle class="hover-opening" cx="295.54" cy="457.06" r="4.00" fill="#34d399" stroke="#000" stroke-width="0.5"><title>glazed_balcony · decision=clean · TERRACO TECNICO ↔ SUITE 02 · id=g002</title></circle></g></svg>