<svg xmlns="http://www.w3.org/2000/svg" viewBox="0 0 800 600">
  <g>
    <path d="M 50,50 L 750,50" style="fill:none;stroke:#000000;stroke-width:6.25" />
    <path d="M 750,50 L 750,100.0" style="fill:none;stroke:#000000;stroke-width:6.25" />
    <path d="M 750,170.0 L 750,550" style="fill:none;stroke:#000000;stroke-width:6.25" />
    <path d="M 50,550 L 115.0,550" style="fill:none;stroke:#000000;stroke-width:6.25" />
    <path d="M 185.0,550 L 375.0,550" style="fill:none;stroke:#000000;stroke-width:6.25" />
    <path d="M 425.0,550 L 750,550" style="fill:none;stroke:#000000;stroke-width:6.25" />
    <path d="M 50,50 L 50,100.0" style="fill:none;stroke:#000000;stroke-width:6.25" />
    <path d="M 50,170.0 L 50,550" style="fill:none;stroke:#000000;stroke-width:6.25" />
    <path d="M 340.0,50 L 340.0,110.0" style="fill:none;stroke:#000000;stroke-width:6.25" />
    <path d="M 340.0,160.0 L 340.0,280.0" style="fill:none;stroke:#000000;stroke-width:6.25" />
    <path d="M 340.0,330.0 L 340.0,445.0" style="fill:none;stroke:#000000;stroke-width:6.25" />
    <path d="M 340.0,495.0 L 340.0,550" style="fill:none;stroke:#000000;stroke-width:6.25" />
    <path d="M 460.0,50 L 460.0,110.0" style="fill:none;stroke:#000000;stroke-width:6.25" />
    <path d="M 460.0,160.0 L 460.0,280.0" style="fill:none;stroke:#000000;stroke-width:6.25" />
    <path d="M 460.0,330.0 L 460.0,445.0" style="fill:none;stroke:#000000;stroke-width:6.25" />
    <path d="M 460.0,495.0 L 460.0,550" style="fill:none;stroke:#000000;stroke-width:6.25" />
    <path d="M 50,220.0 L 340.0,220.0" style="fill:none;stroke:#000000;stroke-width:6.25" />
    <path d="M 460.0,220.0 L 750,220.0" style="fill:none;stroke:#000000;stroke-width:6.25" />
    <path d="M 50,390.0 L 340.0,390.0" style="fill:none;stroke:#000000;stroke-width:6.25" />
    <path d="M 460.0,390.0 L 750,390.0" style="fill:none;stroke:#000000;stroke-width:6.25" />
  </g>
</svg>
